# xmcd
#
# Track frame offsets:
#	150
#	7897
#	17498
#	25412
#	35814
#	45756
#	54890
#	64295
#	75594
#	84630
#	96174
#	107362
#	116963
#	127935
#	139640
#	151441
#	162789
#	174437
#	188363
#	199635
#	208524
#	221169
#	233681
#	246354
#	261382
#	275788
#
# Disc length: 3885 seconds
#
# Revision: 1
# Processed by: cddbd v1.5.2PL0 Copyright (c) Steve Scherf et al.
# Submitted via: audiograbber 1.83.01
#
DISCID=5a0f2b1a
DTITLE=Dolly Parton - Dolly Box Set - CD1
DYEAR=2009
DGENRE=Country
TTITLE0=Puppy Love
TTITLE1=Girl Left Alone
TTITLE2=Gonna Hurry (As Slow As I Can) (Demo)
TTITLE3=It's Sure Gonna Hurt
TTITLE4=The Love You Gave
TTITLE5=Nobody But You (Previously Unissued)
TTITLE6=Busy Signal (Single Version)
TTITLE7=Don't Drop Out (Single Version)
TTITLE8=I've Known You All My Life (Previously Unissued)
TTITLE9=Put It Off Until Tomorrow
TTITLE10=Dumb Blonde
TTITLE11=Something Fishy
TTITLE12=I Couldn't Wait Forever
TTITLE13=I'm Not Worth The Tears
TTITLE14=Last Thing On My Mind
TTITLE15=False Eyelashes
TTITLE16=The Bridge
TTITLE17=Just Because I'm A Woman
TTITLE18=Holdin' On To Nothing
TTITLE19=We'll Get Ahead Someday
TTITLE20=Jeannie's Afraid Of The Dark
TTITLE21=In The Good Old Days (When Times Were Bad)
TTITLE22=Daddy
TTITLE23=Evening Shade
TTITLE24=Gypsy, Joe And Me
TTITLE25=My Blue Ridge Mountain Boy
EXTD=
EXTT0=
EXTT1=
EXTT2=
EXTT3=
EXTT4=
EXTT5=
EXTT6=
EXTT7=
EXTT8=
EXTT9=
EXTT10=
EXTT11=
EXTT12=
EXTT13=
EXTT14=
EXTT15=
EXTT16=
EXTT17=
EXTT18=
EXTT19=
EXTT20=
EXTT21=
EXTT22=
EXTT23=
EXTT24=
EXTT25=
PLAYORDER=
